{
    "asset": {
        "generator": "COLLADA2GLTF",
        "version": "2.0"
    },
    "scenes": [
        {
            "nodes": [
                0
            ]
        }
    ],
    "scene": 0,
    "nodes": [
        {
            "children": [
                2,
                1
            ],
            "name": "Y_UP"
        },
        {
            "matrix": [
                1.0,
                -0.0,
                0.0,
                -0.0,
                -0.0,
                1.0,
                -0.0,
                0.0,
                0.0,
                -0.0,
                1.0,
                -0.0,
                -3.010000000358559e-7,
                -0.00017640800797380507,
                0.16675901412963868,
                1.0
            ],
            "camera": 0,
            "name": "Default_Camera"
        },
        {
            "mesh": 0,
            "matrix": [
                1.0,
                0.0,
                0.0,
                0.0,
                0.0,
                1.0,
                0.0,
                0.0,
                0.0,
                0.0,
                1.0,
                0.0,
                -0.3470010161399842,
                -0.10050000250339508,
                0.09949720650911333,
                1.0
            ],
            "name": "Layer_1"
        }
    ],
    "cameras": [
        {
            "perspective": {
                "aspectRatio": 3.4700000286102297,
                "yfov": 0.523598313331604,
                "zfar": 1.0,
                "znear": 0.0010000000474974514
            },
            "type": "perspective",
            "name": "Default_Camera"
        }
    ],
    "meshes": [
        {
            "primitives": [
                {
                    "attributes": {
                        "NORMAL": 1,
                        "POSITION": 2,
                        "TEXCOORD_0": 3
                    },
                    "indices": 0,
                    "mode": 4,
                    "material": 0
                },
                {
                    "attributes": {
                        "NORMAL": 5,
                        "POSITION": 6,
                        "TEXCOORD_0": 7
                    },
                    "indices": 4,
                    "mode": 4,
                    "material": 1
                },
                {
                    "attributes": {
                        "NORMAL": 9,
                        "POSITION": 10,
                        "TEXCOORD_0": 11
                    },
                    "indices": 8,
                    "mode": 4,
                    "material": 2
                },
                {
                    "attributes": {
                        "NORMAL": 13,
                        "POSITION": 14,
                        "TEXCOORD_0": 15
                    },
                    "indices": 12,
                    "mode": 4,
                    "material": 3
                },
                {
                    "attributes": {
                        "NORMAL": 17,
                        "POSITION": 18,
                        "TEXCOORD_0": 19
                    },
                    "indices": 16,
                    "mode": 4,
                    "material": 4
                }
            ],
            "name": "Layer_1"
        }
    ],
    "accessors": [
        {
            "bufferView": 0,
            "byteOffset": 0,
            "componentType": 5123,
            "count": 4455,
            "max": [
                1017
            ],
            "min": [
                0
            ],
            "type": "SCALAR"
        },
        {
            "bufferView": 1,
            "byteOffset": 0,
            "componentType": 5126,
            "count": 1018,
            "max": [
                0.0,
                0.0,
                1.0
            ],
            "min": [
                0.0,
                0.0,
                0.9983069896697998
            ],
            "type": "VEC3"
        },
        {
            "bufferView": 1,
            "byteOffset": 12216,
            "componentType": 5126,
            "count": 1018,
            "max": [
                0.46941304206848147,
                0.1356000155210495,
                -0.06439679861068726
            ],
            "min": [
                0.22458802163600925,
                0.06539960205554962,
                -0.06439679861068726
            ],
            "type": "VEC3"
        },
        {
            "bufferView": 2,
            "byteOffset": 0,
            "componentType": 5126,
            "count": 1018,
            "max": [
                1.0,
                1.0
            ],
            "min": [
                0.0,
                0.0
            ],
            "type": "VEC2"
        },
        {
            "bufferView": 0,
            "byteOffset": 8910,
            "componentType": 5123,
            "count": 3,
            "max": [
                0
            ],
            "min": [
                0
            ],
            "type": "SCALAR"
        },
        {
            "bufferView": 1,
            "byteOffset": 24432,
            "componentType": 5126,
            "count": 1,
            "max": [
                0.0,
                0.0,
                1.0
            ],
            "min": [
                0.0,
                0.0,
                1.0
            ],
            "type": "VEC3"
        },
        {
            "bufferView": 1,
            "byteOffset": 24444,
            "componentType": 5126,
            "count": 1,
            "max": [
                0.4542140364646912,
                0.06649470329284668,
                -0.06439679861068726
            ],
            "min": [
                0.4542140364646912,
                0.06649470329284668,
                -0.06439679861068726
            ],
            "type": "VEC3"
        },
        {
            "bufferView": 2,
            "byteOffset": 8144,
            "componentType": 5126,
            "count": 1,
            "max": [
                0.9379180073738098,
                0.9844020009040833
            ],
            "min": [
                0.9379180073738098,
                0.9844020009040833
            ],
            "type": "VEC2"
        },
        {
            "bufferView": 0,
            "byteOffset": 8916,
            "componentType": 5123,
            "count": 3144,
            "max": [
                1345
            ],
            "min": [
                0
            ],
            "type": "SCALAR"
        },
        {
            "bufferView": 1,
            "byteOffset": 24456,
            "componentType": 5126,
            "count": 1346,
            "max": [
                1.0,
                1.0,
                0.0
            ],
            "min": [
                -1.0,
                -1.0,
                0.0
            ],
            "type": "VEC3"
        },
        {
            "bufferView": 1,
            "byteOffset": 40608,
            "componentType": 5126,
            "count": 1346,
            "max": [
                0.46941304206848147,
                0.1356000155210495,
                -0.06439679861068726
            ],
            "min": [
                0.22458802163600925,
                0.06539960205554962,
                -0.07439680397510529
            ],
            "type": "VEC3"
        },
        {
            "bufferView": 2,
            "byteOffset": 8152,
            "componentType": 5126,
            "count": 1346,
            "max": [
                1.0,
                1.0
            ],
            "min": [
                0.0,
                0.0
            ],
            "type": "VEC2"
        },
        {
            "bufferView": 0,
            "byteOffset": 15204,
            "componentType": 5123,
            "count": 3,
            "max": [
                0
            ],
            "min": [
                0
            ],
            "type": "SCALAR"
        },
        {
            "bufferView": 1,
            "byteOffset": 56760,
            "componentType": 5126,
            "count": 1,
            "max": [
                0.0,
                0.0,
                1.0
            ],
            "min": [
                0.0,
                0.0,
                1.0
            ],
            "type": "VEC3"
        },
        {
            "bufferView": 1,
            "byteOffset": 56772,
            "componentType": 5126,
            "count": 1,
            "max": [
                0.4542140364646912,
                0.06649470329284668,
                -0.06439679861068726
            ],
            "min": [
                0.4542140364646912,
                0.06649470329284668,
                -0.06439679861068726
            ],
            "type": "VEC3"
        },
        {
            "bufferView": 2,
            "byteOffset": 18920,
            "componentType": 5126,
            "count": 1,
            "max": [
                0.9379180073738098,
                0.9844020009040833
            ],
            "min": [
                0.9379180073738098,
                0.9844020009040833
            ],
            "type": "VEC2"
        },
        {
            "bufferView": 0,
            "byteOffset": 15210,
            "componentType": 5123,
            "count": 4455,
            "max": [
                1017
            ],
            "min": [
                0
            ],
            "type": "SCALAR"
        },
        {
            "bufferView": 1,
            "byteOffset": 56784,
            "componentType": 5126,
            "count": 1018,
            "max": [
                0.0,
                0.0,
                -0.9983069896697998
            ],
            "min": [
                0.0,
                0.0,
                -1.0
            ],
            "type": "VEC3"
        },
        {
            "bufferView": 1,
            "byteOffset": 69000,
            "componentType": 5126,
            "count": 1018,
            "max": [
                0.46941304206848147,
                0.1356000155210495,
                -0.07439680397510529
            ],
            "min": [
                0.22458802163600925,
                0.06539960205554962,
                -0.07439680397510529
            ],
            "type": "VEC3"
        },
        {
            "bufferView": 2,
            "byteOffset": 18928,
            "componentType": 5126,
            "count": 1018,
            "max": [
                1.0,
                1.0
            ],
            "min": [
                0.0,
                0.0
            ],
            "type": "VEC2"
        }
    ],
    "materials": [
        {
            "pbrMetallicRoughness": {
                "baseColorFactor": [
                    1.0,
                    1.0,
                    1.0,
                    1.0
                ],
                "baseColorTexture": {
                    "index": 0
                },
                "metallicFactor": 0.0
            },
            "emissiveFactor": [
                0.0,
                0.0,
                0.0
            ],
            "doubleSided": true,
            "name": "Layer_1_Front_Inflation_Material"
        },
        {
            "pbrMetallicRoughness": {
                "baseColorFactor": [
                    1.0,
                    1.0,
                    1.0,
                    1.0
                ],
                "baseColorTexture": {
                    "index": 1
                },
                "metallicFactor": 0.0
            },
            "emissiveFactor": [
                0.0,
                0.0,
                0.0
            ],
            "doubleSided": true,
            "name": "Layer_1_Front_Bevel_Material"
        },
        {
            "pbrMetallicRoughness": {
                "baseColorFactor": [
                    1.0,
                    1.0,
                    1.0,
                    1.0
                ],
                "baseColorTexture": {
                    "index": 2
                },
                "metallicFactor": 0.0
            },
            "emissiveFactor": [
                0.0,
                0.0,
                0.0
            ],
            "doubleSided": true,
            "name": "Layer_1_Extrusion_Material"
        },
        {
            "pbrMetallicRoughness": {
                "baseColorFactor": [
                    1.0,
                    1.0,
                    1.0,
                    1.0
                ],
                "baseColorTexture": {
                    "index": 3
                },
                "metallicFactor": 0.0
            },
            "emissiveFactor": [
                0.0,
                0.0,
                0.0
            ],
            "doubleSided": true,
            "name": "Layer_1_Back_Bevel_Material"
        },
        {
            "pbrMetallicRoughness": {
                "baseColorFactor": [
                    1.0,
                    1.0,
                    1.0,
                    1.0
                ],
                "baseColorTexture": {
                    "index": 4
                },
                "metallicFactor": 0.0
            },
            "emissiveFactor": [
                0.0,
                0.0,
                0.0
            ],
            "doubleSided": true,
            "name": "Layer_1_Back_Inflation_Material"
        }
    ],
    "textures": [
        {
            "sampler": 0,
            "source": 0
        },
        {
            "sampler": 0,
            "source": 0
        },
        {
            "sampler": 0,
            "source": 1
        },
        {
            "sampler": 0,
            "source": 0
        },
        {
            "sampler": 0,
            "source": 0
        }
    ],
    "images": [
        {
            "uri": "data:image/png;base64,"
        },
        {
            "uri": "data:image/png;base64,"
        }
    ],
    "samplers": [
        {
            "magFilter": 9729,
            "minFilter": 9986,
            "wrapS": 10497,
            "wrapT": 10497
        }
    ],
    "bufferViews": [
        {
            "buffer": 0,
            "byteOffset": 108288,
            "byteLength": 24120,
            "target": 34963
        },
        {
            "buffer": 0,
            "byteOffset": 0,
            "byteLength": 81216,
            "byteStride": 12,
            "target": 34962
        },
        {
            "buffer": 0,
            "byteOffset": 81216,
            "byteLength": 27072,
            "byteStride": 8,
            "target": 34962
        }
    ],
    "buffers": [
        {
            "byteLength": 132408,
            "uri": "data:application/octet-stream;base64,"
        }
    ]
}
