{
    "asset": {
        "generator": "COLLADA2GLTF",
        "version": "2.0"
    },
    "scenes": [
        {
            "nodes": [
                0
            ]
        }
    ],
    "scene": 0,
    "nodes": [
        {
            "children": [
                2,
                1
            ],
            "name": "Y_UP"
        },
        {
            "matrix": [
                1.0,
                -0.0,
                0.0,
                -0.0,
                -0.0,
                1.0,
                -0.0,
                0.0,
                0.0,
                -0.0,
                1.0,
                -0.0,
                -3.010000000358559e-7,
                -0.00017640901205595583,
                0.16675901412963868,
                1.0
            ],
            "camera": 0,
            "name": "Default_Camera"
        },
        {
            "mesh": 0,
            "matrix": [
                0.35277798771858218,
                0.0,
                0.0,
                0.0,
                0.0,
                0.35277798771858218,
                0.0,
                0.0,
                0.0,
                0.0,
                0.35277798771858218,
                0.0,
                -0.1224140152335167,
                -0.03545420244336128,
                0.005632940214127302,
                1.0
            ],
            "name": "Layer_1"
        }
    ],
    "cameras": [
        {
            "perspective": {
                "aspectRatio": 3.4700000286102297,
                "yfov": 0.523598313331604,
                "zfar": 1.0,
                "znear": 0.0010000000474974514
            },
            "type": "perspective",
            "name": "Default_Camera"
        }
    ],
    "meshes": [
        {
            "primitives": [
                {
                    "attributes": {
                        "NORMAL": 1,
                        "POSITION": 2,
                        "TEXCOORD_0": 3
                    },
                    "indices": 0,
                    "mode": 4,
                    "material": 0
                },
                {
                    "attributes": {
                        "NORMAL": 5,
                        "POSITION": 6,
                        "TEXCOORD_0": 7
                    },
                    "indices": 4,
                    "mode": 4,
                    "material": 1
                },
                {
                    "attributes": {
                        "NORMAL": 9,
                        "POSITION": 10,
                        "TEXCOORD_0": 11
                    },
                    "indices": 8,
                    "mode": 4,
                    "material": 2
                },
                {
                    "attributes": {
                        "NORMAL": 13,
                        "POSITION": 14,
                        "TEXCOORD_0": 15
                    },
                    "indices": 12,
                    "mode": 4,
                    "material": 3
                },
                {
                    "attributes": {
                        "NORMAL": 17,
                        "POSITION": 18,
                        "TEXCOORD_0": 19
                    },
                    "indices": 16,
                    "mode": 4,
                    "material": 4
                }
            ],
            "name": "Layer_1"
        }
    ],
    "accessors": [
        {
            "bufferView": 0,
            "byteOffset": 0,
            "componentType": 5123,
            "count": 12495,
            "max": [
                2376
            ],
            "min": [
                0
            ],
            "type": "SCALAR"
        },
        {
            "bufferView": 1,
            "byteOffset": 0,
            "componentType": 5126,
            "count": 2377,
            "max": [
                0.6079109907150269,
                0.7098109722137451,
                0.9997850060462952
            ],
            "min": [
                -0.6267250180244446,
                -0.6821569800376892,
                0.6982460021972656
            ],
            "type": "VEC3"
        },
        {
            "bufferView": 1,
            "byteOffset": 28524,
            "componentType": 5126,
            "count": 2377,
            "max": [
                0.6939970254898071,
                0.19999702274799348,
                0.01416540052741766
            ],
            "min": [
                0.000004500000159168849,
                0.00100281008053571,
                -0.0004945599939674139
            ],
            "type": "VEC3"
        },
        {
            "bufferView": 2,
            "byteOffset": 0,
            "componentType": 5126,
            "count": 2377,
            "max": [
                1.0,
                1.0
            ],
            "min": [
                0.0,
                0.0
            ],
            "type": "VEC2"
        },
        {
            "bufferView": 0,
            "byteOffset": 24990,
            "componentType": 5123,
            "count": 3,
            "max": [
                0
            ],
            "min": [
                0
            ],
            "type": "SCALAR"
        },
        {
            "bufferView": 1,
            "byteOffset": 57048,
            "componentType": 5126,
            "count": 1,
            "max": [
                -0.020097000524401666,
                -0.5722529888153076,
                0.8177649974822998
            ],
            "min": [
                -0.020097000524401666,
                -0.5722529888153076,
                0.8177649974822998
            ],
            "type": "VEC3"
        },
        {
            "bufferView": 1,
            "byteOffset": 57060,
            "componentType": 5126,
            "count": 1,
            "max": [
                0.6508030891418457,
                0.00100281008053571,
                0.0
            ],
            "min": [
                0.6508030891418457,
                0.00100281008053571,
                0.0
            ],
            "type": "VEC3"
        },
        {
            "bufferView": 2,
            "byteOffset": 19016,
            "componentType": 5126,
            "count": 1,
            "max": [
                0.9377610087394714,
                1.0
            ],
            "min": [
                0.9377610087394714,
                1.0
            ],
            "type": "VEC2"
        },
        {
            "bufferView": 0,
            "byteOffset": 24996,
            "componentType": 5123,
            "count": 3144,
            "max": [
                1345
            ],
            "min": [
                0
            ],
            "type": "SCALAR"
        },
        {
            "bufferView": 1,
            "byteOffset": 57072,
            "componentType": 5126,
            "count": 1346,
            "max": [
                1.0,
                1.0,
                0.0
            ],
            "min": [
                -1.0,
                -1.0,
                0.0
            ],
            "type": "VEC3"
        },
        {
            "bufferView": 1,
            "byteOffset": 73224,
            "componentType": 5126,
            "count": 1346,
            "max": [
                0.6939970254898071,
                0.19999702274799348,
                0.0
            ],
            "min": [
                0.000004500000159168849,
                0.00100281008053571,
                -0.02834649942815304
            ],
            "type": "VEC3"
        },
        {
            "bufferView": 2,
            "byteOffset": 19024,
            "componentType": 5126,
            "count": 1346,
            "max": [
                1.0,
                1.0
            ],
            "min": [
                0.0,
                0.0
            ],
            "type": "VEC2"
        },
        {
            "bufferView": 0,
            "byteOffset": 31284,
            "componentType": 5123,
            "count": 3,
            "max": [
                0
            ],
            "min": [
                0
            ],
            "type": "SCALAR"
        },
        {
            "bufferView": 1,
            "byteOffset": 89376,
            "componentType": 5126,
            "count": 1,
            "max": [
                -0.020097000524401666,
                -0.5722529888153076,
                0.8177649974822998
            ],
            "min": [
                -0.020097000524401666,
                -0.5722529888153076,
                0.8177649974822998
            ],
            "type": "VEC3"
        },
        {
            "bufferView": 1,
            "byteOffset": 89388,
            "componentType": 5126,
            "count": 1,
            "max": [
                0.6508030891418457,
                0.00100281008053571,
                0.0
            ],
            "min": [
                0.6508030891418457,
                0.00100281008053571,
                0.0
            ],
            "type": "VEC3"
        },
        {
            "bufferView": 2,
            "byteOffset": 29792,
            "componentType": 5126,
            "count": 1,
            "max": [
                0.9377610087394714,
                1.0
            ],
            "min": [
                0.9377610087394714,
                1.0
            ],
            "type": "VEC2"
        },
        {
            "bufferView": 0,
            "byteOffset": 31290,
            "componentType": 5123,
            "count": 12495,
            "max": [
                2376
            ],
            "min": [
                0
            ],
            "type": "SCALAR"
        },
        {
            "bufferView": 1,
            "byteOffset": 89400,
            "componentType": 5126,
            "count": 2377,
            "max": [
                0.6079109907150269,
                0.7098109722137451,
                -0.6982460021972656
            ],
            "min": [
                -0.6267250180244446,
                -0.6821569800376892,
                -0.9997850060462952
            ],
            "type": "VEC3"
        },
        {
            "bufferView": 1,
            "byteOffset": 117924,
            "componentType": 5126,
            "count": 2377,
            "max": [
                0.6939970254898071,
                0.19999702274799348,
                -0.027851901948451997
            ],
            "min": [
                0.000004500000159168849,
                0.00100281008053571,
                -0.04251180216670036
            ],
            "type": "VEC3"
        },
        {
            "bufferView": 2,
            "byteOffset": 29800,
            "componentType": 5126,
            "count": 2377,
            "max": [
                1.0,
                1.0
            ],
            "min": [
                0.0,
                0.0
            ],
            "type": "VEC2"
        }
    ],
    "materials": [
        {
            "pbrMetallicRoughness": {
                "baseColorFactor": [
                    1.0,
                    1.0,
                    1.0,
                    1.0
                ],
                "baseColorTexture": {
                    "index": 0
                },
                "metallicFactor": 0.0
            },
            "emissiveFactor": [
                0.0,
                0.0,
                0.0
            ],
            "doubleSided": true,
            "name": "Layer_1_Front_Inflation_Material"
        },
        {
            "pbrMetallicRoughness": {
                "baseColorFactor": [
                    1.0,
                    1.0,
                    1.0,
                    1.0
                ],
                "baseColorTexture": {
                    "index": 1
                },
                "metallicFactor": 0.0
            },
            "emissiveFactor": [
                0.0,
                0.0,
                0.0
            ],
            "doubleSided": true,
            "name": "Layer_1_Front_Bevel_Material"
        },
        {
            "pbrMetallicRoughness": {
                "baseColorFactor": [
                    1.0,
                    1.0,
                    1.0,
                    1.0
                ],
                "baseColorTexture": {
                    "index": 2
                },
                "metallicFactor": 0.0
            },
            "emissiveFactor": [
                0.0,
                0.0,
                0.0
            ],
            "doubleSided": true,
            "name": "Layer_1_Extrusion_Material"
        },
        {
            "pbrMetallicRoughness": {
                "baseColorFactor": [
                    1.0,
                    1.0,
                    1.0,
                    1.0
                ],
                "baseColorTexture": {
                    "index": 3
                },
                "metallicFactor": 0.0
            },
            "emissiveFactor": [
                0.0,
                0.0,
                0.0
            ],
            "doubleSided": true,
            "name": "Layer_1_Back_Bevel_Material"
        },
        {
            "pbrMetallicRoughness": {
                "baseColorFactor": [
                    1.0,
                    1.0,
                    1.0,
                    1.0
                ],
                "baseColorTexture": {
                    "index": 4
                },
                "metallicFactor": 0.0
            },
            "emissiveFactor": [
                0.0,
                0.0,
                0.0
            ],
            "doubleSided": true,
            "name": "Layer_1_Back_Inflation_Material"
        }
    ],
    "textures": [
        {
            "sampler": 0,
            "source": 0
        },
        {
            "sampler": 0,
            "source": 0
        },
        {
            "sampler": 0,
            "source": 1
        },
        {
            "sampler": 0,
            "source": 0
        },
        {
            "sampler": 0,
            "source": 0
        }
    ],
    "images": [
        {
            "uri": "data:image/png;base64,"
        },
        {
            "uri": "data:image/png;base64,"
        }
    ],
    "samplers": [
        {
            "magFilter": 9729,
            "minFilter": 9986,
            "wrapS": 10497,
            "wrapT": 10497
        }
    ],
    "bufferViews": [
        {
            "buffer": 0,
            "byteOffset": 195264,
            "byteLength": 56280,
            "target": 34963
        },
        {
            "buffer": 0,
            "byteOffset": 0,
            "byteLength": 146448,
            "byteStride": 12,
            "target": 34962
        },
        {
            "buffer": 0,
            "byteOffset": 146448,
            "byteLength": 48816,
            "byteStride": 8,
            "target": 34962
        }
    ],
    "buffers": [
        {
            "byteLength": 251544,
            "uri": "data:application/octet-stream;base64,"
        }
    ]
}
